<?xml version="1.0" encoding="utf-8" standalone="no"?>
<!DOCTYPE svg PUBLIC "-//W3C//DTD SVG 1.1//EN"
  "http://www.w3.org/Graphics/SVG/1.1/DTD/svg11.dtd">
<svg xmlns:xlink="http://www.w3.org/1999/xlink" width="417.626562pt" height="266.51625pt" viewBox="0 0 417.626562 266.51625" xmlns="http://www.w3.org/2000/svg" version="1.1">
 <metadata>
  <rdf:RDF xmlns:dc="http://purl.org/dc/elements/1.1/" xmlns:cc="http://creativecommons.org/ns#" xmlns:rdf="http://www.w3.org/1999/02/22-rdf-syntax-ns#">
   <cc:Work>
    <dc:type rdf:resource="http://purl.org/dc/dcmitype/StillImage"/>
    <dc:date>2023-04-17T20:59:58.581050</dc:date>
    <dc:format>image/svg+xml</dc:format>
    <dc:creator>
     <cc:Agent>
      <dc:title>Matplotlib v3.5.1, https://matplotlib.org/</dc:title>
     </cc:Agent>
    </dc:creator>
   </cc:Work>
  </rdf:RDF>
 </metadata>
 <defs>
  <style type="text/css">*{stroke-linejoin: round; stroke-linecap: butt}</style>
 </defs>
 <g id="figure_1">
  <g id="patch_1">
   <path d="M 0 266.51625 
L 417.626562 266.51625 
L 417.626562 0 
L 0 0 
z
" style="fill: #ffffff"/>
  </g>
  <g id="axes_1">
   <g id="patch_2">
    <path d="M 131.426563 228.96 
L 410.426563 228.96 
L 410.426563 7.2 
L 131.426563 7.2 
z
" style="fill: #ffffff"/>
   </g>
   <g id="patch_3">
    <path d="M 131.426563 8.504471 
L 397.140848 8.504471 
L 397.140848 18.940235 
L 131.426563 18.940235 
z
" clip-path="url(#p2505b294b4)" style="fill: #ea96a3"/>
   </g>
   <g id="patch_4">
    <path d="M 131.426563 21.549176 
L 269.190018 21.549176 
L 269.190018 31.984941 
L 131.426563 31.984941 
z
" clip-path="url(#p2505b294b4)" style="fill: #e6957a"/>
   </g>
   <g id="patch_5">
    <path d="M 131.426563 34.593882 
L 263.776156 34.593882 
L 263.776156 45.029647 
L 131.426563 45.029647 
z
" clip-path="url(#p2505b294b4)" style="fill: #ce974c"/>
   </g>
   <g id="patch_6">
    <path d="M 131.426563 47.638588 
L 262.567704 47.638588 
L 262.567704 58.074353 
L 131.426563 58.074353 
z
" clip-path="url(#p2505b294b4)" style="fill: #b59c49"/>
   </g>
   <g id="patch_7">
    <path d="M 131.426563 60.683294 
L 253.383474 60.683294 
L 253.383474 71.119059 
L 131.426563 71.119059 
z
" clip-path="url(#p2505b294b4)" style="fill: #9da045"/>
   </g>
   <g id="patch_8">
    <path d="M 131.426563 73.728 
L 238.495353 73.728 
L 238.495353 84.163765 
L 131.426563 84.163765 
z
" clip-path="url(#p2505b294b4)" style="fill: #83a846"/>
   </g>
   <g id="patch_9">
    <path d="M 131.426563 86.772706 
L 238.108649 86.772706 
L 238.108649 97.208471 
L 131.426563 97.208471 
z
" clip-path="url(#p2505b294b4)" style="fill: #48b058"/>
   </g>
   <g id="patch_10">
    <path d="M 131.426563 99.817412 
L 218.096694 99.817412 
L 218.096694 110.253176 
L 131.426563 110.253176 
z
" clip-path="url(#p2505b294b4)" style="fill: #49ae88"/>
   </g>
   <g id="patch_11">
    <path d="M 131.426563 112.862118 
L 202.145136 112.862118 
L 202.145136 123.297882 
L 131.426563 123.297882 
z
" clip-path="url(#p2505b294b4)" style="fill: #4bac9c"/>
   </g>
   <g id="patch_12">
    <path d="M 131.426563 125.906824 
L 201.081699 125.906824 
L 201.081699 136.342588 
L 131.426563 136.342588 
z
" clip-path="url(#p2505b294b4)" style="fill: #4cabac"/>
   </g>
   <g id="patch_13">
    <path d="M 131.426563 138.951529 
L 198.616458 138.951529 
L 198.616458 149.387294 
L 131.426563 149.387294 
z
" clip-path="url(#p2505b294b4)" style="fill: #50acbe"/>
   </g>
   <g id="patch_14">
    <path d="M 131.426563 151.996235 
L 198.374768 151.996235 
L 198.374768 162.432 
L 131.426563 162.432 
z
" clip-path="url(#p2505b294b4)" style="fill: #56acd9"/>
   </g>
   <g id="patch_15">
    <path d="M 131.426563 165.040941 
L 197.456345 165.040941 
L 197.456345 175.476706 
L 131.426563 175.476706 
z
" clip-path="url(#p2505b294b4)" style="fill: #99ade9"/>
   </g>
   <g id="patch_16">
    <path d="M 131.426563 178.085647 
L 196.682936 178.085647 
L 196.682936 188.521412 
L 131.426563 188.521412 
z
" clip-path="url(#p2505b294b4)" style="fill: #bda4ea"/>
   </g>
   <g id="patch_17">
    <path d="M 131.426563 191.130353 
L 194.362709 191.130353 
L 194.362709 201.566118 
L 131.426563 201.566118 
z
" clip-path="url(#p2505b294b4)" style="fill: #da93e8"/>
   </g>
   <g id="patch_18">
    <path d="M 131.426563 204.175059 
L 193.589301 204.175059 
L 193.589301 214.610824 
L 131.426563 214.610824 
z
" clip-path="url(#p2505b294b4)" style="fill: #e78dd4"/>
   </g>
   <g id="patch_19">
    <path d="M 131.426563 217.219765 
L 188.997185 217.219765 
L 188.997185 227.655529 
L 131.426563 227.655529 
z
" clip-path="url(#p2505b294b4)" style="fill: #e992bc"/>
   </g>
   <g id="matplotlib.axis_1">
    <g id="xtick_1">
     <g id="line2d_1">
      <defs>
       <path id="m459e1539c2" d="M 0 0 
L 0 3.5 
" style="stroke: #000000; stroke-width: 0.8"/>
      </defs>
      <g>
       <use xlink:href="#m459e1539c2" x="131.426563" y="228.96" style="stroke: #000000; stroke-width: 0.8"/>
      </g>
     </g>
     <g id="text_1">
      <!-- 0 -->
      <g transform="translate(128.245313 243.558437)scale(0.1 -0.1)">
       <defs>
        <path id="DejaVuSans-30" d="M 2034 4250 
Q 1547 4250 1301 3770 
Q 1056 3291 1056 2328 
Q 1056 1369 1301 889 
Q 1547 409 2034 409 
Q 2525 409 2770 889 
Q 3016 1369 3016 2328 
Q 3016 3291 2770 3770 
Q 2525 4250 2034 4250 
z
M 2034 4750 
Q 2819 4750 3233 4129 
Q 3647 3509 3647 2328 
Q 3647 1150 3233 529 
Q 2819 -91 2034 -91 
Q 1250 -91 836 529 
Q 422 1150 422 2328 
Q 422 3509 836 4129 
Q 1250 4750 2034 4750 
z
" transform="scale(0.015625)"/>
       </defs>
       <use xlink:href="#DejaVuSans-30"/>
      </g>
     </g>
    </g>
    <g id="xtick_2">
     <g id="line2d_2">
      <g>
       <use xlink:href="#m459e1539c2" x="179.764617" y="228.96" style="stroke: #000000; stroke-width: 0.8"/>
      </g>
     </g>
     <g id="text_2">
      <!-- 10 -->
      <g transform="translate(173.402117 243.558437)scale(0.1 -0.1)">
       <defs>
        <path id="DejaVuSans-31" d="M 794 531 
L 1825 531 
L 1825 4091 
L 703 3866 
L 703 4441 
L 1819 4666 
L 2450 4666 
L 2450 531 
L 3481 531 
L 3481 0 
L 794 0 
L 794 531 
z
" transform="scale(0.015625)"/>
       </defs>
       <use xlink:href="#DejaVuSans-31"/>
       <use xlink:href="#DejaVuSans-30" x="63.623047"/>
      </g>
     </g>
    </g>
    <g id="xtick_3">
     <g id="line2d_3">
      <g>
       <use xlink:href="#m459e1539c2" x="228.102672" y="228.96" style="stroke: #000000; stroke-width: 0.8"/>
      </g>
     </g>
     <g id="text_3">
      <!-- 20 -->
      <g transform="translate(221.740172 243.558437)scale(0.1 -0.1)">
       <defs>
        <path id="DejaVuSans-32" d="M 1228 531 
L 3431 531 
L 3431 0 
L 469 0 
L 469 531 
Q 828 903 1448 1529 
Q 2069 2156 2228 2338 
Q 2531 2678 2651 2914 
Q 2772 3150 2772 3378 
Q 2772 3750 2511 3984 
Q 2250 4219 1831 4219 
Q 1534 4219 1204 4116 
Q 875 4013 500 3803 
L 500 4441 
Q 881 4594 1212 4672 
Q 1544 4750 1819 4750 
Q 2544 4750 2975 4387 
Q 3406 4025 3406 3419 
Q 3406 3131 3298 2873 
Q 3191 2616 2906 2266 
Q 2828 2175 2409 1742 
Q 1991 1309 1228 531 
z
" transform="scale(0.015625)"/>
       </defs>
       <use xlink:href="#DejaVuSans-32"/>
       <use xlink:href="#DejaVuSans-30" x="63.623047"/>
      </g>
     </g>
    </g>
    <g id="xtick_4">
     <g id="line2d_4">
      <g>
       <use xlink:href="#m459e1539c2" x="276.440726" y="228.96" style="stroke: #000000; stroke-width: 0.8"/>
      </g>
     </g>
     <g id="text_4">
      <!-- 30 -->
      <g transform="translate(270.078226 243.558437)scale(0.1 -0.1)">
       <defs>
        <path id="DejaVuSans-33" d="M 2597 2516 
Q 3050 2419 3304 2112 
Q 3559 1806 3559 1356 
Q 3559 666 3084 287 
Q 2609 -91 1734 -91 
Q 1441 -91 1130 -33 
Q 819 25 488 141 
L 488 750 
Q 750 597 1062 519 
Q 1375 441 1716 441 
Q 2309 441 2620 675 
Q 2931 909 2931 1356 
Q 2931 1769 2642 2001 
Q 2353 2234 1838 2234 
L 1294 2234 
L 1294 2753 
L 1863 2753 
Q 2328 2753 2575 2939 
Q 2822 3125 2822 3475 
Q 2822 3834 2567 4026 
Q 2313 4219 1838 4219 
Q 1578 4219 1281 4162 
Q 984 4106 628 3988 
L 628 4550 
Q 988 4650 1302 4700 
Q 1616 4750 1894 4750 
Q 2613 4750 3031 4423 
Q 3450 4097 3450 3541 
Q 3450 3153 3228 2886 
Q 3006 2619 2597 2516 
z
" transform="scale(0.015625)"/>
       </defs>
       <use xlink:href="#DejaVuSans-33"/>
       <use xlink:href="#DejaVuSans-30" x="63.623047"/>
      </g>
     </g>
    </g>
    <g id="xtick_5">
     <g id="line2d_5">
      <g>
       <use xlink:href="#m459e1539c2" x="324.778781" y="228.96" style="stroke: #000000; stroke-width: 0.8"/>
      </g>
     </g>
     <g id="text_5">
      <!-- 40 -->
      <g transform="translate(318.416281 243.558437)scale(0.1 -0.1)">
       <defs>
        <path id="DejaVuSans-34" d="M 2419 4116 
L 825 1625 
L 2419 1625 
L 2419 4116 
z
M 2253 4666 
L 3047 4666 
L 3047 1625 
L 3713 1625 
L 3713 1100 
L 3047 1100 
L 3047 0 
L 2419 0 
L 2419 1100 
L 313 1100 
L 313 1709 
L 2253 4666 
z
" transform="scale(0.015625)"/>
       </defs>
       <use xlink:href="#DejaVuSans-34"/>
       <use xlink:href="#DejaVuSans-30" x="63.623047"/>
      </g>
     </g>
    </g>
    <g id="xtick_6">
     <g id="line2d_6">
      <g>
       <use xlink:href="#m459e1539c2" x="373.116835" y="228.96" style="stroke: #000000; stroke-width: 0.8"/>
      </g>
     </g>
     <g id="text_6">
      <!-- 50 -->
      <g transform="translate(366.754335 243.558437)scale(0.1 -0.1)">
       <defs>
        <path id="DejaVuSans-35" d="M 691 4666 
L 3169 4666 
L 3169 4134 
L 1269 4134 
L 1269 2991 
Q 1406 3038 1543 3061 
Q 1681 3084 1819 3084 
Q 2600 3084 3056 2656 
Q 3513 2228 3513 1497 
Q 3513 744 3044 326 
Q 2575 -91 1722 -91 
Q 1428 -91 1123 -41 
Q 819 9 494 109 
L 494 744 
Q 775 591 1075 516 
Q 1375 441 1709 441 
Q 2250 441 2565 725 
Q 2881 1009 2881 1497 
Q 2881 1984 2565 2268 
Q 2250 2553 1709 2553 
Q 1456 2553 1204 2497 
Q 953 2441 691 2322 
L 691 4666 
z
" transform="scale(0.015625)"/>
       </defs>
       <use xlink:href="#DejaVuSans-35"/>
       <use xlink:href="#DejaVuSans-30" x="63.623047"/>
      </g>
     </g>
    </g>
    <g id="text_7">
     <!-- MPE test, % -->
     <g transform="translate(241.31875 257.236562)scale(0.1 -0.1)">
      <defs>
       <path id="DejaVuSans-4d" d="M 628 4666 
L 1569 4666 
L 2759 1491 
L 3956 4666 
L 4897 4666 
L 4897 0 
L 4281 0 
L 4281 4097 
L 3078 897 
L 2444 897 
L 1241 4097 
L 1241 0 
L 628 0 
L 628 4666 
z
" transform="scale(0.015625)"/>
       <path id="DejaVuSans-50" d="M 1259 4147 
L 1259 2394 
L 2053 2394 
Q 2494 2394 2734 2622 
Q 2975 2850 2975 3272 
Q 2975 3691 2734 3919 
Q 2494 4147 2053 4147 
L 1259 4147 
z
M 628 4666 
L 2053 4666 
Q 2838 4666 3239 4311 
Q 3641 3956 3641 3272 
Q 3641 2581 3239 2228 
Q 2838 1875 2053 1875 
L 1259 1875 
L 1259 0 
L 628 0 
L 628 4666 
z
" transform="scale(0.015625)"/>
       <path id="DejaVuSans-45" d="M 628 4666 
L 3578 4666 
L 3578 4134 
L 1259 4134 
L 1259 2753 
L 3481 2753 
L 3481 2222 
L 1259 2222 
L 1259 531 
L 3634 531 
L 3634 0 
L 628 0 
L 628 4666 
z
" transform="scale(0.015625)"/>
       <path id="DejaVuSans-20" transform="scale(0.015625)"/>
       <path id="DejaVuSans-74" d="M 1172 4494 
L 1172 3500 
L 2356 3500 
L 2356 3053 
L 1172 3053 
L 1172 1153 
Q 1172 725 1289 603 
Q 1406 481 1766 481 
L 2356 481 
L 2356 0 
L 1766 0 
Q 1100 0 847 248 
Q 594 497 594 1153 
L 594 3053 
L 172 3053 
L 172 3500 
L 594 3500 
L 594 4494 
L 1172 4494 
z
" transform="scale(0.015625)"/>
       <path id="DejaVuSans-65" d="M 3597 1894 
L 3597 1613 
L 953 1613 
Q 991 1019 1311 708 
Q 1631 397 2203 397 
Q 2534 397 2845 478 
Q 3156 559 3463 722 
L 3463 178 
Q 3153 47 2828 -22 
Q 2503 -91 2169 -91 
Q 1331 -91 842 396 
Q 353 884 353 1716 
Q 353 2575 817 3079 
Q 1281 3584 2069 3584 
Q 2775 3584 3186 3129 
Q 3597 2675 3597 1894 
z
M 3022 2063 
Q 3016 2534 2758 2815 
Q 2500 3097 2075 3097 
Q 1594 3097 1305 2825 
Q 1016 2553 972 2059 
L 3022 2063 
z
" transform="scale(0.015625)"/>
       <path id="DejaVuSans-73" d="M 2834 3397 
L 2834 2853 
Q 2591 2978 2328 3040 
Q 2066 3103 1784 3103 
Q 1356 3103 1142 2972 
Q 928 2841 928 2578 
Q 928 2378 1081 2264 
Q 1234 2150 1697 2047 
L 1894 2003 
Q 2506 1872 2764 1633 
Q 3022 1394 3022 966 
Q 3022 478 2636 193 
Q 2250 -91 1575 -91 
Q 1294 -91 989 -36 
Q 684 19 347 128 
L 347 722 
Q 666 556 975 473 
Q 1284 391 1588 391 
Q 1994 391 2212 530 
Q 2431 669 2431 922 
Q 2431 1156 2273 1281 
Q 2116 1406 1581 1522 
L 1381 1569 
Q 847 1681 609 1914 
Q 372 2147 372 2553 
Q 372 3047 722 3315 
Q 1072 3584 1716 3584 
Q 2034 3584 2315 3537 
Q 2597 3491 2834 3397 
z
" transform="scale(0.015625)"/>
       <path id="DejaVuSans-2c" d="M 750 794 
L 1409 794 
L 1409 256 
L 897 -744 
L 494 -744 
L 750 256 
L 750 794 
z
" transform="scale(0.015625)"/>
       <path id="DejaVuSans-25" d="M 4653 2053 
Q 4381 2053 4226 1822 
Q 4072 1591 4072 1178 
Q 4072 772 4226 539 
Q 4381 306 4653 306 
Q 4919 306 5073 539 
Q 5228 772 5228 1178 
Q 5228 1588 5073 1820 
Q 4919 2053 4653 2053 
z
M 4653 2450 
Q 5147 2450 5437 2106 
Q 5728 1763 5728 1178 
Q 5728 594 5436 251 
Q 5144 -91 4653 -91 
Q 4153 -91 3862 251 
Q 3572 594 3572 1178 
Q 3572 1766 3864 2108 
Q 4156 2450 4653 2450 
z
M 1428 4353 
Q 1159 4353 1004 4120 
Q 850 3888 850 3481 
Q 850 3069 1003 2837 
Q 1156 2606 1428 2606 
Q 1700 2606 1854 2837 
Q 2009 3069 2009 3481 
Q 2009 3884 1853 4118 
Q 1697 4353 1428 4353 
z
M 4250 4750 
L 4750 4750 
L 1831 -91 
L 1331 -91 
L 4250 4750 
z
M 1428 4750 
Q 1922 4750 2215 4408 
Q 2509 4066 2509 3481 
Q 2509 2891 2217 2550 
Q 1925 2209 1428 2209 
Q 931 2209 642 2551 
Q 353 2894 353 3481 
Q 353 4063 643 4406 
Q 934 4750 1428 4750 
z
" transform="scale(0.015625)"/>
      </defs>
      <use xlink:href="#DejaVuSans-4d"/>
      <use xlink:href="#DejaVuSans-50" x="86.279297"/>
      <use xlink:href="#DejaVuSans-45" x="146.582031"/>
      <use xlink:href="#DejaVuSans-20" x="209.765625"/>
      <use xlink:href="#DejaVuSans-74" x="241.552734"/>
      <use xlink:href="#DejaVuSans-65" x="280.761719"/>
      <use xlink:href="#DejaVuSans-73" x="342.285156"/>
      <use xlink:href="#DejaVuSans-74" x="394.384766"/>
      <use xlink:href="#DejaVuSans-2c" x="433.59375"/>
      <use xlink:href="#DejaVuSans-20" x="465.380859"/>
      <use xlink:href="#DejaVuSans-25" x="497.167969"/>
     </g>
    </g>
   </g>
   <g id="matplotlib.axis_2">
    <g id="ytick_1">
     <g id="line2d_7">
      <defs>
       <path id="mf185eb1fa9" d="M 0 0 
L -3.5 0 
" style="stroke: #000000; stroke-width: 0.8"/>
      </defs>
      <g>
       <use xlink:href="#mf185eb1fa9" x="131.426563" y="13.722353" style="stroke: #000000; stroke-width: 0.8"/>
      </g>
     </g>
     <g id="text_8">
      <!-- Noise -->
      <g transform="translate(96.685938 17.521572)scale(0.1 -0.1)">
       <defs>
        <path id="DejaVuSans-4e" d="M 628 4666 
L 1478 4666 
L 3547 763 
L 3547 4666 
L 4159 4666 
L 4159 0 
L 3309 0 
L 1241 3903 
L 1241 0 
L 628 0 
L 628 4666 
z
" transform="scale(0.015625)"/>
        <path id="DejaVuSans-6f" d="M 1959 3097 
Q 1497 3097 1228 2736 
Q 959 2375 959 1747 
Q 959 1119 1226 758 
Q 1494 397 1959 397 
Q 2419 397 2687 759 
Q 2956 1122 2956 1747 
Q 2956 2369 2687 2733 
Q 2419 3097 1959 3097 
z
M 1959 3584 
Q 2709 3584 3137 3096 
Q 3566 2609 3566 1747 
Q 3566 888 3137 398 
Q 2709 -91 1959 -91 
Q 1206 -91 779 398 
Q 353 888 353 1747 
Q 353 2609 779 3096 
Q 1206 3584 1959 3584 
z
" transform="scale(0.015625)"/>
        <path id="DejaVuSans-69" d="M 603 3500 
L 1178 3500 
L 1178 0 
L 603 0 
L 603 3500 
z
M 603 4863 
L 1178 4863 
L 1178 4134 
L 603 4134 
L 603 4863 
z
" transform="scale(0.015625)"/>
       </defs>
       <use xlink:href="#DejaVuSans-4e"/>
       <use xlink:href="#DejaVuSans-6f" x="74.804688"/>
       <use xlink:href="#DejaVuSans-69" x="135.986328"/>
       <use xlink:href="#DejaVuSans-73" x="163.769531"/>
       <use xlink:href="#DejaVuSans-65" x="215.869141"/>
      </g>
     </g>
    </g>
    <g id="ytick_2">
     <g id="line2d_8">
      <g>
       <use xlink:href="#mf185eb1fa9" x="131.426563" y="26.767059" style="stroke: #000000; stroke-width: 0.8"/>
      </g>
     </g>
     <g id="text_9">
      <!-- σт -->
      <g transform="translate(112.264063 30.566278)scale(0.1 -0.1)">
       <defs>
        <path id="DejaVuSans-3c3" d="M 1959 3044 
Q 1484 3044 1228 2700 
Q 959 2341 959 1747 
Q 959 1119 1226 758 
Q 1494 397 1959 397 
Q 2419 397 2687 759 
Q 2956 1122 2956 1747 
Q 2956 2319 2688 2700 
Q 2441 3044 1959 3044 
z
M 1959 3500 
L 3869 3500 
L 3869 2925 
L 3225 2925 
Q 3566 2438 3566 1747 
Q 3566 888 3138 400 
Q 2709 -91 1959 -91 
Q 1206 -91 781 400 
Q 353 888 353 1747 
Q 353 2613 781 3097 
Q 1134 3500 1959 3500 
z
" transform="scale(0.015625)"/>
        <path id="DejaVuSans-442" d="M 188 3500 
L 3541 3500 
L 3541 3041 
L 2147 3041 
L 2147 0 
L 1581 0 
L 1581 3041 
L 188 3041 
L 188 3500 
z
" transform="scale(0.015625)"/>
       </defs>
       <use xlink:href="#DejaVuSans-3c3"/>
       <use xlink:href="#DejaVuSans-442" x="63.378906"/>
      </g>
     </g>
    </g>
    <g id="ytick_3">
     <g id="line2d_9">
      <g>
       <use xlink:href="#mf185eb1fa9" x="131.426563" y="39.811765" style="stroke: #000000; stroke-width: 0.8"/>
      </g>
     </g>
     <g id="text_10">
      <!-- ρ -->
      <g transform="translate(118.078125 43.610983)scale(0.1 -0.1)">
       <defs>
        <path id="DejaVuSans-3c1" d="M 863 2875 
Q 1053 3194 1525 3475 
Q 1709 3584 2278 3584 
Q 2916 3584 3314 3078 
Q 3713 2572 3713 1747 
Q 3713 922 3314 415 
Q 2916 -91 2278 -91 
Q 1894 -91 1617 61 
Q 1341 213 1159 525 
L 1159 -1331 
L 581 -1331 
L 581 1716 
Q 581 2438 863 2875 
z
M 3116 1747 
Q 3116 2381 2855 2742 
Q 2594 3103 2138 3103 
Q 1681 3103 1420 2742 
Q 1159 2381 1159 1747 
Q 1159 1113 1420 752 
Q 1681 391 2138 391 
Q 2594 391 2855 752 
Q 3116 1113 3116 1747 
z
" transform="scale(0.015625)"/>
       </defs>
       <use xlink:href="#DejaVuSans-3c1"/>
      </g>
     </g>
    </g>
    <g id="ytick_4">
     <g id="line2d_10">
      <g>
       <use xlink:href="#mf185eb1fa9" x="131.426563" y="52.856471" style="stroke: #000000; stroke-width: 0.8"/>
      </g>
     </g>
     <g id="text_11">
      <!-- Tпл -->
      <g transform="translate(105.389063 56.655689)scale(0.1 -0.1)">
       <defs>
        <path id="DejaVuSans-54" d="M -19 4666 
L 3928 4666 
L 3928 4134 
L 2272 4134 
L 2272 0 
L 1638 0 
L 1638 4134 
L -19 4134 
L -19 4666 
z
" transform="scale(0.015625)"/>
        <path id="DejaVuSans-43f" d="M 3603 3500 
L 3603 0 
L 3025 0 
L 3025 3041 
L 1159 3041 
L 1159 0 
L 581 0 
L 581 3500 
L 3603 3500 
z
" transform="scale(0.015625)"/>
        <path id="DejaVuSans-43b" d="M 238 0 
L 238 478 
Q 806 566 981 959 
Q 1194 1513 1194 2928 
L 1194 3500 
L 3559 3500 
L 3559 0 
L 2984 0 
L 2984 3041 
L 1769 3041 
L 1769 2694 
Q 1769 1344 1494 738 
Q 1200 91 238 0 
z
" transform="scale(0.015625)"/>
       </defs>
       <use xlink:href="#DejaVuSans-54"/>
       <use xlink:href="#DejaVuSans-43f" x="61.083984"/>
       <use xlink:href="#DejaVuSans-43b" x="126.464844"/>
      </g>
     </g>
    </g>
    <g id="ytick_5">
     <g id="line2d_11">
      <g>
       <use xlink:href="#mf185eb1fa9" x="131.426563" y="65.901176" style="stroke: #000000; stroke-width: 0.8"/>
      </g>
     </g>
     <g id="text_12">
      <!-- c -->
      <g transform="translate(118.928125 69.700395)scale(0.1 -0.1)">
       <defs>
        <path id="DejaVuSans-63" d="M 3122 3366 
L 3122 2828 
Q 2878 2963 2633 3030 
Q 2388 3097 2138 3097 
Q 1578 3097 1268 2742 
Q 959 2388 959 1747 
Q 959 1106 1268 751 
Q 1578 397 2138 397 
Q 2388 397 2633 464 
Q 2878 531 3122 666 
L 3122 134 
Q 2881 22 2623 -34 
Q 2366 -91 2075 -91 
Q 1284 -91 818 406 
Q 353 903 353 1747 
Q 353 2603 823 3093 
Q 1294 3584 2113 3584 
Q 2378 3584 2631 3529 
Q 2884 3475 3122 3366 
z
" transform="scale(0.015625)"/>
       </defs>
       <use xlink:href="#DejaVuSans-63"/>
      </g>
     </g>
    </g>
    <g id="ytick_6">
     <g id="line2d_12">
      <g>
       <use xlink:href="#mf185eb1fa9" x="131.426563" y="78.945882" style="stroke: #000000; stroke-width: 0.8"/>
      </g>
     </g>
     <g id="text_13">
      <!-- E -->
      <g transform="translate(118.107813 82.745101)scale(0.1 -0.1)">
       <use xlink:href="#DejaVuSans-45"/>
      </g>
     </g>
    </g>
    <g id="ytick_7">
     <g id="line2d_13">
      <g>
       <use xlink:href="#mf185eb1fa9" x="131.426563" y="91.990588" style="stroke: #000000; stroke-width: 0.8"/>
      </g>
     </g>
     <g id="text_14">
      <!-- σпр -->
      <g transform="translate(105.203125 95.789807)scale(0.1 -0.1)">
       <defs>
        <path id="DejaVuSans-440" d="M 1159 525 
L 1159 -1331 
L 581 -1331 
L 581 3500 
L 1159 3500 
L 1159 2969 
Q 1341 3281 1617 3432 
Q 1894 3584 2278 3584 
Q 2916 3584 3314 3078 
Q 3713 2572 3713 1747 
Q 3713 922 3314 415 
Q 2916 -91 2278 -91 
Q 1894 -91 1617 61 
Q 1341 213 1159 525 
z
M 3116 1747 
Q 3116 2381 2855 2742 
Q 2594 3103 2138 3103 
Q 1681 3103 1420 2742 
Q 1159 2381 1159 1747 
Q 1159 1113 1420 752 
Q 1681 391 2138 391 
Q 2594 391 2855 752 
Q 3116 1113 3116 1747 
z
" transform="scale(0.015625)"/>
       </defs>
       <use xlink:href="#DejaVuSans-3c3"/>
       <use xlink:href="#DejaVuSans-43f" x="63.378906"/>
       <use xlink:href="#DejaVuSans-440" x="128.759766"/>
      </g>
     </g>
    </g>
    <g id="ytick_8">
     <g id="line2d_14">
      <g>
       <use xlink:href="#mf185eb1fa9" x="131.426563" y="105.035294" style="stroke: #000000; stroke-width: 0.8"/>
      </g>
     </g>
     <g id="text_15">
      <!--  σпр, σт, ρ -->
      <g transform="translate(70.801563 108.834513)scale(0.1 -0.1)">
       <use xlink:href="#DejaVuSans-20"/>
       <use xlink:href="#DejaVuSans-3c3" x="31.787109"/>
       <use xlink:href="#DejaVuSans-43f" x="95.166016"/>
       <use xlink:href="#DejaVuSans-440" x="160.546875"/>
       <use xlink:href="#DejaVuSans-2c" x="224.023438"/>
       <use xlink:href="#DejaVuSans-20" x="255.810547"/>
       <use xlink:href="#DejaVuSans-3c3" x="287.597656"/>
       <use xlink:href="#DejaVuSans-442" x="350.976562"/>
       <use xlink:href="#DejaVuSans-2c" x="409.228516"/>
       <use xlink:href="#DejaVuSans-20" x="441.015625"/>
       <use xlink:href="#DejaVuSans-3c1" x="472.802734"/>
      </g>
     </g>
    </g>
    <g id="ytick_9">
     <g id="line2d_15">
      <g>
       <use xlink:href="#mf185eb1fa9" x="131.426563" y="118.08" style="stroke: #000000; stroke-width: 0.8"/>
      </g>
     </g>
     <g id="text_16">
      <!-- σпр, σт, c -->
      <g transform="translate(74.829688 121.879219)scale(0.1 -0.1)">
       <use xlink:href="#DejaVuSans-3c3"/>
       <use xlink:href="#DejaVuSans-43f" x="63.378906"/>
       <use xlink:href="#DejaVuSans-440" x="128.759766"/>
       <use xlink:href="#DejaVuSans-2c" x="192.236328"/>
       <use xlink:href="#DejaVuSans-20" x="224.023438"/>
       <use xlink:href="#DejaVuSans-3c3" x="255.810547"/>
       <use xlink:href="#DejaVuSans-442" x="319.189453"/>
       <use xlink:href="#DejaVuSans-2c" x="377.441406"/>
       <use xlink:href="#DejaVuSans-20" x="409.228516"/>
       <use xlink:href="#DejaVuSans-63" x="441.015625"/>
      </g>
     </g>
    </g>
    <g id="ytick_10">
     <g id="line2d_16">
      <g>
       <use xlink:href="#mf185eb1fa9" x="131.426563" y="131.124706" style="stroke: #000000; stroke-width: 0.8"/>
      </g>
     </g>
     <g id="text_17">
      <!-- E, σпр, σт -->
      <g transform="translate(74.009375 134.923925)scale(0.1 -0.1)">
       <use xlink:href="#DejaVuSans-45"/>
       <use xlink:href="#DejaVuSans-2c" x="63.183594"/>
       <use xlink:href="#DejaVuSans-20" x="94.970703"/>
       <use xlink:href="#DejaVuSans-3c3" x="126.757812"/>
       <use xlink:href="#DejaVuSans-43f" x="190.136719"/>
       <use xlink:href="#DejaVuSans-440" x="255.517578"/>
       <use xlink:href="#DejaVuSans-2c" x="318.994141"/>
       <use xlink:href="#DejaVuSans-20" x="350.78125"/>
       <use xlink:href="#DejaVuSans-3c3" x="382.568359"/>
       <use xlink:href="#DejaVuSans-442" x="445.947266"/>
      </g>
     </g>
    </g>
    <g id="ytick_11">
     <g id="line2d_17">
      <g>
       <use xlink:href="#mf185eb1fa9" x="131.426563" y="144.169412" style="stroke: #000000; stroke-width: 0.8"/>
      </g>
     </g>
     <g id="text_18">
      <!-- E, σт, c -->
      <g transform="translate(87.734375 147.968631)scale(0.1 -0.1)">
       <use xlink:href="#DejaVuSans-45"/>
       <use xlink:href="#DejaVuSans-2c" x="63.183594"/>
       <use xlink:href="#DejaVuSans-20" x="94.970703"/>
       <use xlink:href="#DejaVuSans-3c3" x="126.757812"/>
       <use xlink:href="#DejaVuSans-442" x="190.136719"/>
       <use xlink:href="#DejaVuSans-2c" x="248.388672"/>
       <use xlink:href="#DejaVuSans-20" x="280.175781"/>
       <use xlink:href="#DejaVuSans-63" x="311.962891"/>
      </g>
     </g>
    </g>
    <g id="ytick_12">
     <g id="line2d_18">
      <g>
       <use xlink:href="#mf185eb1fa9" x="131.426563" y="157.214118" style="stroke: #000000; stroke-width: 0.8"/>
      </g>
     </g>
     <g id="text_19">
      <!-- E, σпр, ρ -->
      <g transform="translate(79.823438 161.013336)scale(0.1 -0.1)">
       <use xlink:href="#DejaVuSans-45"/>
       <use xlink:href="#DejaVuSans-2c" x="63.183594"/>
       <use xlink:href="#DejaVuSans-20" x="94.970703"/>
       <use xlink:href="#DejaVuSans-3c3" x="126.757812"/>
       <use xlink:href="#DejaVuSans-43f" x="190.136719"/>
       <use xlink:href="#DejaVuSans-440" x="255.517578"/>
       <use xlink:href="#DejaVuSans-2c" x="318.994141"/>
       <use xlink:href="#DejaVuSans-20" x="350.78125"/>
       <use xlink:href="#DejaVuSans-3c1" x="382.568359"/>
      </g>
     </g>
    </g>
    <g id="ytick_13">
     <g id="line2d_19">
      <g>
       <use xlink:href="#mf185eb1fa9" x="131.426563" y="170.258824" style="stroke: #000000; stroke-width: 0.8"/>
      </g>
     </g>
     <g id="text_20">
      <!-- E, σпр, σт, Tпл -->
      <g transform="translate(48.615625 174.058042)scale(0.1 -0.1)">
       <use xlink:href="#DejaVuSans-45"/>
       <use xlink:href="#DejaVuSans-2c" x="63.183594"/>
       <use xlink:href="#DejaVuSans-20" x="94.970703"/>
       <use xlink:href="#DejaVuSans-3c3" x="126.757812"/>
       <use xlink:href="#DejaVuSans-43f" x="190.136719"/>
       <use xlink:href="#DejaVuSans-440" x="255.517578"/>
       <use xlink:href="#DejaVuSans-2c" x="318.994141"/>
       <use xlink:href="#DejaVuSans-20" x="350.78125"/>
       <use xlink:href="#DejaVuSans-3c3" x="382.568359"/>
       <use xlink:href="#DejaVuSans-442" x="445.947266"/>
       <use xlink:href="#DejaVuSans-2c" x="504.199219"/>
       <use xlink:href="#DejaVuSans-20" x="535.986328"/>
       <use xlink:href="#DejaVuSans-54" x="567.773438"/>
       <use xlink:href="#DejaVuSans-43f" x="628.857422"/>
       <use xlink:href="#DejaVuSans-43b" x="694.238281"/>
      </g>
     </g>
    </g>
    <g id="ytick_14">
     <g id="line2d_20">
      <g>
       <use xlink:href="#mf185eb1fa9" x="131.426563" y="183.303529" style="stroke: #000000; stroke-width: 0.8"/>
      </g>
     </g>
     <g id="text_21">
      <!-- E, σпр, σт, ρ -->
      <g transform="translate(61.304688 187.102748)scale(0.1 -0.1)">
       <use xlink:href="#DejaVuSans-45"/>
       <use xlink:href="#DejaVuSans-2c" x="63.183594"/>
       <use xlink:href="#DejaVuSans-20" x="94.970703"/>
       <use xlink:href="#DejaVuSans-3c3" x="126.757812"/>
       <use xlink:href="#DejaVuSans-43f" x="190.136719"/>
       <use xlink:href="#DejaVuSans-440" x="255.517578"/>
       <use xlink:href="#DejaVuSans-2c" x="318.994141"/>
       <use xlink:href="#DejaVuSans-20" x="350.78125"/>
       <use xlink:href="#DejaVuSans-3c3" x="382.568359"/>
       <use xlink:href="#DejaVuSans-442" x="445.947266"/>
       <use xlink:href="#DejaVuSans-2c" x="504.199219"/>
       <use xlink:href="#DejaVuSans-20" x="535.986328"/>
       <use xlink:href="#DejaVuSans-3c1" x="567.773438"/>
      </g>
     </g>
    </g>
    <g id="ytick_15">
     <g id="line2d_21">
      <g>
       <use xlink:href="#mf185eb1fa9" x="131.426563" y="196.348235" style="stroke: #000000; stroke-width: 0.8"/>
      </g>
     </g>
     <g id="text_22">
      <!-- E, σпр, σт, Tпл, ρ -->
      <g transform="translate(35.910938 200.147454)scale(0.1 -0.1)">
       <use xlink:href="#DejaVuSans-45"/>
       <use xlink:href="#DejaVuSans-2c" x="63.183594"/>
       <use xlink:href="#DejaVuSans-20" x="94.970703"/>
       <use xlink:href="#DejaVuSans-3c3" x="126.757812"/>
       <use xlink:href="#DejaVuSans-43f" x="190.136719"/>
       <use xlink:href="#DejaVuSans-440" x="255.517578"/>
       <use xlink:href="#DejaVuSans-2c" x="318.994141"/>
       <use xlink:href="#DejaVuSans-20" x="350.78125"/>
       <use xlink:href="#DejaVuSans-3c3" x="382.568359"/>
       <use xlink:href="#DejaVuSans-442" x="445.947266"/>
       <use xlink:href="#DejaVuSans-2c" x="504.199219"/>
       <use xlink:href="#DejaVuSans-20" x="535.986328"/>
       <use xlink:href="#DejaVuSans-54" x="567.773438"/>
       <use xlink:href="#DejaVuSans-43f" x="628.857422"/>
       <use xlink:href="#DejaVuSans-43b" x="694.238281"/>
       <use xlink:href="#DejaVuSans-2c" x="758.154297"/>
       <use xlink:href="#DejaVuSans-20" x="789.941406"/>
       <use xlink:href="#DejaVuSans-3c1" x="821.728516"/>
      </g>
     </g>
    </g>
    <g id="ytick_16">
     <g id="line2d_22">
      <g>
       <use xlink:href="#mf185eb1fa9" x="131.426563" y="209.392941" style="stroke: #000000; stroke-width: 0.8"/>
      </g>
     </g>
     <g id="text_23">
      <!-- E, σпр, c -->
      <g transform="translate(80.673438 213.19216)scale(0.1 -0.1)">
       <use xlink:href="#DejaVuSans-45"/>
       <use xlink:href="#DejaVuSans-2c" x="63.183594"/>
       <use xlink:href="#DejaVuSans-20" x="94.970703"/>
       <use xlink:href="#DejaVuSans-3c3" x="126.757812"/>
       <use xlink:href="#DejaVuSans-43f" x="190.136719"/>
       <use xlink:href="#DejaVuSans-440" x="255.517578"/>
       <use xlink:href="#DejaVuSans-2c" x="318.994141"/>
       <use xlink:href="#DejaVuSans-20" x="350.78125"/>
       <use xlink:href="#DejaVuSans-63" x="382.568359"/>
      </g>
     </g>
    </g>
    <g id="ytick_17">
     <g id="line2d_23">
      <g>
       <use xlink:href="#mf185eb1fa9" x="131.426563" y="222.437647" style="stroke: #000000; stroke-width: 0.8"/>
      </g>
     </g>
     <g id="text_24">
      <!-- E, σпр, σт, Tпл, ρ, c  -->
      <g transform="translate(20.878125 226.236866)scale(0.1 -0.1)">
       <use xlink:href="#DejaVuSans-45"/>
       <use xlink:href="#DejaVuSans-2c" x="63.183594"/>
       <use xlink:href="#DejaVuSans-20" x="94.970703"/>
       <use xlink:href="#DejaVuSans-3c3" x="126.757812"/>
       <use xlink:href="#DejaVuSans-43f" x="190.136719"/>
       <use xlink:href="#DejaVuSans-440" x="255.517578"/>
       <use xlink:href="#DejaVuSans-2c" x="318.994141"/>
       <use xlink:href="#DejaVuSans-20" x="350.78125"/>
       <use xlink:href="#DejaVuSans-3c3" x="382.568359"/>
       <use xlink:href="#DejaVuSans-442" x="445.947266"/>
       <use xlink:href="#DejaVuSans-2c" x="504.199219"/>
       <use xlink:href="#DejaVuSans-20" x="535.986328"/>
       <use xlink:href="#DejaVuSans-54" x="567.773438"/>
       <use xlink:href="#DejaVuSans-43f" x="628.857422"/>
       <use xlink:href="#DejaVuSans-43b" x="694.238281"/>
       <use xlink:href="#DejaVuSans-2c" x="758.154297"/>
       <use xlink:href="#DejaVuSans-20" x="789.941406"/>
       <use xlink:href="#DejaVuSans-3c1" x="821.728516"/>
       <use xlink:href="#DejaVuSans-2c" x="885.205078"/>
       <use xlink:href="#DejaVuSans-20" x="916.992188"/>
       <use xlink:href="#DejaVuSans-63" x="948.779297"/>
       <use xlink:href="#DejaVuSans-20" x="1003.759766"/>
      </g>
     </g>
    </g>
    <g id="text_25">
     <!-- Input -->
     <g transform="translate(14.798438 131.026875)rotate(-90)scale(0.1 -0.1)">
      <defs>
       <path id="DejaVuSans-49" d="M 628 4666 
L 1259 4666 
L 1259 0 
L 628 0 
L 628 4666 
z
" transform="scale(0.015625)"/>
       <path id="DejaVuSans-6e" d="M 3513 2113 
L 3513 0 
L 2938 0 
L 2938 2094 
Q 2938 2591 2744 2837 
Q 2550 3084 2163 3084 
Q 1697 3084 1428 2787 
Q 1159 2491 1159 1978 
L 1159 0 
L 581 0 
L 581 3500 
L 1159 3500 
L 1159 2956 
Q 1366 3272 1645 3428 
Q 1925 3584 2291 3584 
Q 2894 3584 3203 3211 
Q 3513 2838 3513 2113 
z
" transform="scale(0.015625)"/>
       <path id="DejaVuSans-70" d="M 1159 525 
L 1159 -1331 
L 581 -1331 
L 581 3500 
L 1159 3500 
L 1159 2969 
Q 1341 3281 1617 3432 
Q 1894 3584 2278 3584 
Q 2916 3584 3314 3078 
Q 3713 2572 3713 1747 
Q 3713 922 3314 415 
Q 2916 -91 2278 -91 
Q 1894 -91 1617 61 
Q 1341 213 1159 525 
z
M 3116 1747 
Q 3116 2381 2855 2742 
Q 2594 3103 2138 3103 
Q 1681 3103 1420 2742 
Q 1159 2381 1159 1747 
Q 1159 1113 1420 752 
Q 1681 391 2138 391 
Q 2594 391 2855 752 
Q 3116 1113 3116 1747 
z
" transform="scale(0.015625)"/>
       <path id="DejaVuSans-75" d="M 544 1381 
L 544 3500 
L 1119 3500 
L 1119 1403 
Q 1119 906 1312 657 
Q 1506 409 1894 409 
Q 2359 409 2629 706 
Q 2900 1003 2900 1516 
L 2900 3500 
L 3475 3500 
L 3475 0 
L 2900 0 
L 2900 538 
Q 2691 219 2414 64 
Q 2138 -91 1772 -91 
Q 1169 -91 856 284 
Q 544 659 544 1381 
z
M 1991 3584 
L 1991 3584 
z
" transform="scale(0.015625)"/>
      </defs>
      <use xlink:href="#DejaVuSans-49"/>
      <use xlink:href="#DejaVuSans-6e" x="29.492188"/>
      <use xlink:href="#DejaVuSans-70" x="92.871094"/>
      <use xlink:href="#DejaVuSans-75" x="156.347656"/>
      <use xlink:href="#DejaVuSans-74" x="219.726562"/>
     </g>
    </g>
   </g>
   <g id="line2d_24">
    <path clip-path="url(#p2505b294b4)" style="fill: none; stroke: #424242; stroke-width: 2.7; stroke-linecap: square"/>
   </g>
   <g id="line2d_25">
    <path clip-path="url(#p2505b294b4)" style="fill: none; stroke: #424242; stroke-width: 2.7; stroke-linecap: square"/>
   </g>
   <g id="line2d_26">
    <path clip-path="url(#p2505b294b4)" style="fill: none; stroke: #424242; stroke-width: 2.7; stroke-linecap: square"/>
   </g>
   <g id="line2d_27">
    <path clip-path="url(#p2505b294b4)" style="fill: none; stroke: #424242; stroke-width: 2.7; stroke-linecap: square"/>
   </g>
   <g id="line2d_28">
    <path clip-path="url(#p2505b294b4)" style="fill: none; stroke: #424242; stroke-width: 2.7; stroke-linecap: square"/>
   </g>
   <g id="line2d_29">
    <path clip-path="url(#p2505b294b4)" style="fill: none; stroke: #424242; stroke-width: 2.7; stroke-linecap: square"/>
   </g>
   <g id="line2d_30">
    <path clip-path="url(#p2505b294b4)" style="fill: none; stroke: #424242; stroke-width: 2.7; stroke-linecap: square"/>
   </g>
   <g id="line2d_31">
    <path clip-path="url(#p2505b294b4)" style="fill: none; stroke: #424242; stroke-width: 2.7; stroke-linecap: square"/>
   </g>
   <g id="line2d_32">
    <path clip-path="url(#p2505b294b4)" style="fill: none; stroke: #424242; stroke-width: 2.7; stroke-linecap: square"/>
   </g>
   <g id="line2d_33">
    <path clip-path="url(#p2505b294b4)" style="fill: none; stroke: #424242; stroke-width: 2.7; stroke-linecap: square"/>
   </g>
   <g id="line2d_34">
    <path clip-path="url(#p2505b294b4)" style="fill: none; stroke: #424242; stroke-width: 2.7; stroke-linecap: square"/>
   </g>
   <g id="line2d_35">
    <path clip-path="url(#p2505b294b4)" style="fill: none; stroke: #424242; stroke-width: 2.7; stroke-linecap: square"/>
   </g>
   <g id="line2d_36">
    <path clip-path="url(#p2505b294b4)" style="fill: none; stroke: #424242; stroke-width: 2.7; stroke-linecap: square"/>
   </g>
   <g id="line2d_37">
    <path clip-path="url(#p2505b294b4)" style="fill: none; stroke: #424242; stroke-width: 2.7; stroke-linecap: square"/>
   </g>
   <g id="line2d_38">
    <path clip-path="url(#p2505b294b4)" style="fill: none; stroke: #424242; stroke-width: 2.7; stroke-linecap: square"/>
   </g>
   <g id="line2d_39">
    <path clip-path="url(#p2505b294b4)" style="fill: none; stroke: #424242; stroke-width: 2.7; stroke-linecap: square"/>
   </g>
   <g id="line2d_40">
    <path clip-path="url(#p2505b294b4)" style="fill: none; stroke: #424242; stroke-width: 2.7; stroke-linecap: square"/>
   </g>
   <g id="patch_20">
    <path d="M 131.426563 228.96 
L 131.426563 7.2 
" style="fill: none; stroke: #000000; stroke-width: 0.8; stroke-linejoin: miter; stroke-linecap: square"/>
   </g>
   <g id="patch_21">
    <path d="M 410.426563 228.96 
L 410.426563 7.2 
" style="fill: none; stroke: #000000; stroke-width: 0.8; stroke-linejoin: miter; stroke-linecap: square"/>
   </g>
   <g id="patch_22">
    <path d="M 131.426563 228.96 
L 410.426563 228.96 
" style="fill: none; stroke: #000000; stroke-width: 0.8; stroke-linejoin: miter; stroke-linecap: square"/>
   </g>
   <g id="patch_23">
    <path d="M 131.426563 7.2 
L 410.426563 7.2 
" style="fill: none; stroke: #000000; stroke-width: 0.8; stroke-linejoin: miter; stroke-linecap: square"/>
   </g>
  </g>
 </g>
 <defs>
  <clipPath id="p2505b294b4">
   <rect x="131.426563" y="7.2" width="279" height="221.76"/>
  </clipPath>
 </defs>
</svg>
